PathFileType	4	(X/Y/Z)	 subject01_standing_10_70.trc
DataRate	CameraRate	NumFrames	NumMarkers	Units	OrigDataRate	OrigDataStartFrame	OrigNumFrames
2000	100	4	49	mm	2000	501	1000
Frame#	Time	s2			lmt5			lcal			ltoe			llmal			lsh1			lsh2			lsh3			lsh4			llfc			lth1			lth2			lth3			lth4			lgt			lic			lasi			lpsi			rpsi			ric			rasi			rgt			rth1			rth2			rth3			rth4			rlfc			rsh1			rsh2			rsh4			rlmal			rcal			rmt5			rtoe			jug			c7			lacr			lua			llel			lfa			ldr			racr			rua			rlel			rfa			rdr			B3			B2			B1			
		X1	Y1	Z1	X2	Y2	Z2	X3	Y3	Z3	X4	Y4	Z4	X5	Y5	Z5	X6	Y6	Z6	X7	Y7	Z7	X8	Y8	Z8	X9	Y9	Z9	X10	Y10	Z10	X11	Y11	Z11	X12	Y12	Z12	X13	Y13	Z13	X14	Y14	Z14	X15	Y15	Z15	X16	Y16	Z16	X17	Y17	Z17	X18	Y18	Z18	X19	Y19	Z19	X20	Y20	Z20	X21	Y21	Z21	X22	Y22	Z22	X23	Y23	Z23	X24	Y24	Z24	X25	Y25	Z25	X26	Y26	Z26	X27	Y27	Z27	X28	Y28	Z28	X29	Y29	Z29	X30	Y30	Z30	X31	Y31	Z31	X32	Y32	Z32	X33	Y33	Z33	X34	Y34	Z34	X35	Y35	Z35	X36	Y36	Z36	X37	Y37	Z37	X38	Y38	Z38	X39	Y39	Z39	X40	Y40	Z40	X41	Y41	Z41	X42	Y42	Z42	X43	Y43	Z43	X44	Y44	Z44	X45	Y45	Z45	X46	Y46	Z46	X47	Y47	Z47	X48	Y48	Z48	X49	Y49	Z49	
501	5.0100	309.919678	1223.492188	-214.158813	243.187683	141.366898	-405.321594	112.772850	287.738983	-333.102356	338.938263	88.857338	-336.617889	179.785873	264.607269	-381.722412	316.507202	551.422424	-396.142426	294.013885	467.815186	-389.606964	230.338623	401.363251	-383.074829	325.999023	451.360321	-370.914795	385.268463	651.997314	-378.293854	386.757477	954.279297	-399.176453	403.797058	868.542664	-399.247742	379.164703	781.556580	-387.968658	441.898895	866.873596	-391.509369	381.065491	1087.857056	-387.515503	416.470062	1171.139160	-377.291229	499.765472	1144.938843	-318.686005	338.529907	1244.344849	-267.850403	337.297577	1260.951660	-167.027344	431.402191	1219.101440	-52.276394	492.108063	1170.935547	-105.738319	406.733978	1127.714478	-24.186117	521.716614	1010.773743	-25.393078	600.999878	969.001221	-31.078215	651.855835	897.460938	-40.950790	624.657898	996.204163	-47.249500	707.476196	811.755737	-60.098686	625.114380	743.054932	-45.603554	559.255371	682.404602	-58.856819	573.785828	660.442200	-89.025749	362.492737	585.766968	-63.496330	285.578522	611.904419	-109.247704	397.434692	462.650391	-30.110731	490.573792	394.477020	-91.290810	828.039368	1328.792480	-195.427505	843.053040	1482.643311	-187.304428	875.944275	1478.945435	-312.131256	811.590454	1338.215332	-412.233978	746.711304	1192.957886	-454.971222	804.354736	1070.477051	-420.703033	825.162231	948.382202	-392.951904	854.703979	1458.706299	-50.947369	760.197632	1321.037231	29.073914	685.152222	1169.721436	39.750664	772.410461	1060.107422	11.662224	819.230408	952.707703	-30.723783	25.848614	23.133762	45.918457	19.531973	30.948164	-474.320770	-194.752289	887.721436	-210.690948	
502	5.0200	309.827667	1225.932495	-213.056854	232.473526	147.069122	-405.220795	105.079674	296.001038	-332.892059	327.210449	92.688843	-336.612457	171.577820	271.463348	-381.576416	314.789093	555.212341	-395.606567	290.352905	472.048157	-389.071075	225.174042	407.180450	-382.728821	320.611450	454.902405	-369.490784	385.236938	654.238159	-377.421509	387.137848	956.286194	-397.724121	404.125336	870.615723	-397.981873	379.397888	783.572266	-387.180145	442.248138	868.889709	-389.875031	380.949829	1089.861450	-386.379059	416.532074	1173.092285	-376.292084	499.585388	1147.119019	-317.415375	338.471710	1246.735229	-266.935638	337.132172	1263.557251	-166.085312	431.121918	1221.759521	-51.452068	491.996155	1173.720947	-104.764175	406.724976	1130.369507	-23.298771	521.970825	1013.526184	-24.877155	601.249390	971.748169	-31.312315	652.258301	900.462219	-40.953476	624.859253	999.329285	-46.668655	708.265991	815.004272	-60.844513	627.550842	743.586670	-46.008133	563.269287	681.251038	-59.071926	578.297485	659.864929	-89.219032	369.005798	579.478882	-63.363499	291.290710	603.165039	-109.054115	407.637878	457.444611	-30.035294	502.797302	392.280518	-91.365959	828.411560	1329.620605	-195.045593	843.867615	1483.318481	-186.916153	876.507812	1479.453003	-311.858124	812.404846	1338.587036	-411.710876	747.587952	1193.369385	-454.296997	804.948547	1070.477905	-420.451599	825.351196	948.322815	-392.936676	855.699768	1459.067505	-50.530849	761.344788	1321.522339	29.478662	686.006836	1170.151978	39.925194	772.908264	1060.310303	11.760570	819.362793	952.770386	-30.693436	25.850430	23.127047	45.898148	19.560772	30.964886	-474.318451	-194.747253	887.738708	-210.645370	
503	5.0300	309.670502	1228.276367	-211.806702	222.188492	153.508850	-405.122925	97.960777	305.101532	-332.794678	315.914093	97.237946	-336.569885	164.000885	279.288208	-381.361084	314.302887	559.345825	-395.062073	287.869690	476.688232	-388.643433	220.942657	413.546967	-382.406006	317.404755	458.698853	-368.819672	386.629120	656.406616	-376.452637	387.988739	958.151672	-396.240112	405.385345	872.589233	-396.696411	380.793060	785.481689	-386.361176	443.280914	870.994873	-387.996582	380.895111	1091.781860	-384.975281	416.444183	1175.020752	-375.018890	499.339813	1149.348877	-316.227509	338.310883	1249.137207	-265.607330	337.045380	1266.057617	-164.904663	430.811279	1224.410034	-50.542515	491.840363	1176.471924	-103.687752	406.669952	1132.822144	-22.280230	521.948425	1015.964294	-24.339912	601.209900	974.112549	-31.125351	652.117737	902.706604	-40.965679	624.803162	1001.671265	-46.455620	708.262024	817.182434	-61.508869	629.274109	743.271423	-46.161167	566.723450	679.326721	-59.176937	582.184387	658.359863	-89.320778	375.115570	572.089539	-63.228699	296.633423	593.514099	-108.757301	417.455933	451.268188	-30.039730	514.500488	389.138672	-91.541115	828.723938	1330.414673	-194.767624	844.568054	1484.031860	-186.578766	876.934204	1479.790161	-311.577789	813.033936	1338.922363	-411.317261	748.268188	1193.606079	-453.682434	805.427246	1070.536133	-420.158722	825.481689	948.295715	-392.801575	856.760071	1459.380371	-50.204784	762.533020	1321.923950	29.775126	686.948669	1170.654907	39.969360	773.439514	1060.499512	11.777625	819.505554	952.834534	-30.687532	25.847216	23.153143	45.927189	19.549622	30.983284	-474.321716	-194.712448	887.777527	-210.639404	
504	5.0400	309.518768	1230.610840	-210.589874	212.603836	160.634308	-405.090149	91.445679	314.798218	-332.640594	305.225311	102.878143	-336.637878	157.051743	287.602020	-381.090271	315.156525	563.491272	-394.540131	286.366364	481.552460	-388.040466	217.804459	420.247925	-382.030457	315.432983	462.822083	-368.217804	389.378021	658.611938	-375.514862	389.368347	959.930359	-394.801605	407.461548	874.550598	-395.459747	383.423676	787.184204	-385.550110	445.334229	873.218018	-385.941559	380.950287	1093.695557	-383.674408	416.378693	1177.130493	-373.777191	499.093536	1151.616455	-315.036713	338.128296	1251.499146	-264.363617	337.006287	1268.312256	-163.853592	430.552246	1226.850830	-49.532005	491.779602	1179.045288	-102.620262	406.634796	1135.109863	-21.173534	521.755798	1017.890137	-23.668152	600.822327	975.989258	-30.346016	651.461731	904.251465	-40.866085	624.481750	1003.217224	-46.488075	707.507141	818.299011	-62.185349	630.196594	742.097534	-46.345310	569.443115	676.355957	-59.123802	585.479370	655.895996	-89.412331	380.765228	563.837585	-63.050961	301.623474	583.036499	-108.465515	426.577789	444.201752	-29.943392	525.414001	385.112640	-91.689613	828.915161	1331.139160	-194.540115	845.253845	1484.613525	-186.459763	877.336121	1480.156982	-311.549988	813.512756	1339.250732	-410.940125	748.809692	1193.869995	-453.059357	805.815674	1070.635132	-419.888885	825.572571	948.289307	-392.901062	857.798096	1459.636353	-49.985119	763.731506	1322.268555	29.948624	687.758240	1171.125854	40.106342	773.926086	1060.658203	11.797794	819.688782	952.779236	-30.871078	25.853127	23.167166	45.920815	19.556162	31.018204	-474.302948	-194.695709	887.816528	-210.620926	
